# xmcd
# 
# Track frame offsets:
#   150
#   16064
#   28714
#   48852
#   61645
#   77095
#   89792
#   103882
#   120051
#   137981
#   150870
#   166992
#   179723
#   192952
#   207907
#   224517
#   238660
#   251361
#   267832
#   283329
#   299008
#   313594
# 
# Disc length: 4401 seconds
# 
# Revision: 0
# Processed by: cddbd v1.5.2PL0 Copyright (c) Steve Scherf et al.
# Submitted via: Synapstar 1.0 
# 
DISCID=3e112f16
DTITLE=Clay Walker - Clay Walker Mix
DYEAR=1900
DGENRE=Country
TTITLE0=Dreamin' With My Eyes Wide Open
TTITLE1=What's It to You
TTITLE2=The Silence Speaks For Its Self
TTITLE3=How To Make A Man Lonesome
TTITLE4=The Next Step In Love
TTITLE5=White Palace
TTITLE6=Money Cant But Love
TTITLE7=Things I Should've Said
TTITLE8=Where Do i Fit In The Picture
TTITLE9=Live Until I Die
TTITLE10=I Don't Know How Love Starts
TTITLE11=Who Needs You Baby
TTITLE12=I Won't Have The Heart
TTITLE13=Let Me Take The Heartache
TTITLE14=Hypnotize The Moon
TTITLE15=Hand Me Down Heart
TTITLE16=Only On Days That End In Y
TTITLE17=Where Were You
TTITLE18=Loving You Comes Naturally To Me
TTITLE19=Bury The Shovel
TTITLE20=A Cowboys Toughest Ride
TTITLE21=Love Me Like You Love Me
EXTD=MediaType: Audio CD Producer: Unknown
EXTT0=
EXTT1=
EXTT2=
EXTT3=
EXTT4=
EXTT5=
EXTT6=
EXTT7=
EXTT8=
EXTT9=
EXTT10=
EXTT11=
EXTT12=
EXTT13=
EXTT14=
EXTT15=
EXTT16=
EXTT17=
EXTT18=
EXTT19=
EXTT20=
EXTT21=
PLAYORDER=
